<svg width="23" height="22" viewBox="0 0 23 22" fill="none" xmlns="http://www.w3.org/2000/svg">
<path d="M20.2178 1.8986C18.9596 0.700466 16.9198 0.700466 15.6617 1.8986L2.88944 14.0616C2.80191 14.1449 2.73871 14.2483 2.70571 14.3617L1.02612 20.1361C0.95705 20.3729 1.02724 20.6264 1.20958 20.8003C1.39219 20.9739 1.65842 21.0408 1.90703 20.9753L7.97071 19.3755C8.08985 19.3441 8.19835 19.2839 8.28588 19.2006L21.0579 7.03734C22.314 5.83841 22.314 3.89753 21.0579 2.6986L20.2178 1.8986ZM4.44934 14.5047L14.9024 4.55L18.2736 7.76038L7.82026 17.7151L4.44934 14.5047ZM3.77594 15.7915L6.46926 18.3566L2.74374 19.3396L3.77594 15.7915ZM20.0455 6.0733L19.2863 6.79633L15.9148 3.58568L16.6743 2.86265C17.3732 2.19714 18.5063 2.19714 19.2052 2.86265L20.0455 3.66265C20.7432 4.32896 20.7432 5.40725 20.0455 6.0733Z" fill="#969696" stroke="white" stroke-width="0.5"/>
</svg>
