<svg width="20" height="20" viewBox="0 0 20 20" fill="none" xmlns="http://www.w3.org/2000/svg">
<path d="M18.1805 1.88441H12.8051V0.935742C12.8051 0.419766 12.3859 0 11.8707 0H8.1291C7.61386 0 7.19472 0.419766 7.19472 0.935742V1.88438H1.8193C1.55934 1.88438 1.34863 2.09508 1.34863 2.35504C1.34863 2.615 1.55934 2.8257 1.8193 2.8257H2.69164L3.28648 18.3099C3.32289 19.2576 4.09433 20 5.04281 20H14.957C15.9055 20 16.6769 19.2576 16.7133 18.3099L17.3081 2.82566H18.1805C18.4403 2.82566 18.6511 2.61496 18.6511 2.355C18.6511 2.09512 18.4404 1.88441 18.1805 1.88441ZM8.13601 0.941289H11.8637V1.88438H8.13601V0.941289ZM15.7727 18.2738C15.7558 18.7139 15.3975 19.0587 14.957 19.0587H5.04281C4.60234 19.0587 4.24406 18.7139 4.22711 18.2738L3.63367 2.8257H16.3662L15.7727 18.2738Z" fill="#969696"/>
<path d="M7.13409 7.09258C7.12913 6.83575 6.91948 6.63098 6.6637 6.63098C6.66066 6.63098 6.65753 6.63098 6.65448 6.63106C6.39464 6.63606 6.18796 6.85083 6.19296 7.11067L6.34065 14.7917C6.34558 15.0485 6.5553 15.2533 6.81105 15.2533C6.81409 15.2533 6.81722 15.2533 6.82026 15.2532C7.08015 15.2482 7.28679 15.0335 7.28179 14.7736L7.13409 7.09258Z" fill="#969696"/>
<path d="M9.99996 6.63098C9.74004 6.63098 9.5293 6.84168 9.5293 7.10165V14.7827C9.5293 15.0426 9.74 15.2533 9.99996 15.2533C10.2599 15.2533 10.4706 15.0426 10.4706 14.7827V7.10165C10.4706 6.84172 10.2599 6.63098 9.99996 6.63098Z" fill="#969696"/>
<path d="M13.3454 6.6311C13.0865 6.62536 12.8708 6.83274 12.8658 7.09262L12.7181 14.7736C12.7131 15.0335 12.9197 15.2482 13.1796 15.2532C13.1827 15.2533 13.1858 15.2533 13.1888 15.2533C13.4446 15.2533 13.6543 15.0485 13.6592 14.7917L13.8069 7.11071C13.8119 6.85079 13.6053 6.63606 13.3454 6.6311Z" fill="#969696"/>
</svg>
